<svg aria-hidden="true" style="position: absolute; width: 0; height: 0; overflow: hidden;" version="1.1" xmlns="http://www.w3.org/2000/svg" xmlns:xlink="http://www.w3.org/1999/xlink">
<defs>
<symbol id="icon-Arrow-1" viewBox="0 0 36 32">
<path  style="fill: var(--color1, #011c44)" d="M1.062 17.414c-0.781-0.781-0.781-2.047 0-2.828l12.728-12.728c0.781-0.781 2.047-0.781 2.828 0s0.781 2.047 0 2.828l-11.314 11.314 11.314 11.314c0.781 0.781 0.781 2.047 0 2.828s-2.047 0.781-2.828 0l-12.728-12.728zM36 18h-33.524v-4h33.524v4z"></path>
</symbol>
<symbol id="icon-Arrow-2" viewBox="0 0 36 32">
<path fill="#011c44" style="fill: var(--color1, #011c44)" d="M35.414 14.586c0.781 0.781 0.781 2.047 0 2.828l-12.728 12.728c-0.781 0.781-2.047 0.781-2.828 0s-0.781-2.047 0-2.828l11.314-11.314-11.314-11.314c-0.781-0.781-0.781-2.047 0-2.828s2.047-0.781 2.828 0l12.728 12.728zM34 18h-33.524v-4h33.524v4z"></path>
</symbol>
</defs>
</svg>
